<?xml version="1.0" encoding="UTF-8" standalone="no"?>
<svg
   fill="#000000"
   width="800px"
   height="800px"
   viewBox="0 0 24 24"
   version="1.1"
   id="svg4"
   sodipodi:docname="like-svgrepo-com.svg"
   inkscape:version="1.2.2 (732a01da63, 2022-12-09)"
   xml:space="preserve"
   inkscape:export-filename="icon-38.png"
   inkscape:export-xdpi="4.5599999"
   inkscape:export-ydpi="4.5599999"
   xmlns:inkscape="http://www.inkscape.org/namespaces/inkscape"
   xmlns:sodipodi="http://sodipodi.sourceforge.net/DTD/sodipodi-0.dtd"
   xmlns="http://www.w3.org/2000/svg"
   xmlns:svg="http://www.w3.org/2000/svg"><defs
     id="defs8" /><sodipodi:namedview
     id="namedview6"
     pagecolor="#ffffff"
     bordercolor="#111111"
     borderopacity="1"
     inkscape:showpageshadow="0"
     inkscape:pageopacity="0"
     inkscape:pagecheckerboard="1"
     inkscape:deskcolor="#d1d1d1"
     showgrid="false"
     inkscape:zoom="0.59"
     inkscape:cx="561.86441"
     inkscape:cy="457.62712"
     inkscape:window-width="1920"
     inkscape:window-height="1017"
     inkscape:window-x="1912"
     inkscape:window-y="-8"
     inkscape:window-maximized="1"
     inkscape:current-layer="svg4" /><path
     id="path2"
     d="M 12 1.9999805 C 11.703 1.9999805 11.422015 2.1319807 11.231016 2.3599805 L 8.2955859 5.8824609 L 9.7158984 7.3027734 L 12.467988 4.0000195 L 13.614023 4.0000195 L 12.051973 8.6830078 A 0.998 0.998 0 0 0 13.00002 10.00002 L 19.99998 10.00002 L 19.99998 11.819004 L 18.426914 16.013789 L 19.980586 17.567461 L 21.936973 12.350977 A 1 1 0 0 0 22.00002 12 L 22.00002 10.00002 C 22.00002 8.8970206 21.102979 7.9999805 19.99998 7.9999805 L 14.387988 7.9999805 L 15.510996 4.6330078 C 15.712996 4.0250084 15.611015 3.3510151 15.236016 2.8310156 C 14.861016 2.3110161 14.252972 1.9999805 13.611973 1.9999805 L 12 1.9999805 z M 4.0000195 7.9999805 C 2.8970206 7.9999805 1.9999805 8.8970206 1.9999805 10.00002 L 1.9999805 19.00002 C 1.9999805 20.103018 2.8970206 21 4.0000195 21 L 17.307012 21 A 2.01 2.01 0 0 0 18.312598 20.725723 L 16.586895 19.00002 L 7.9999805 19.00002 L 7.9999805 10.413105 L 5.5868555 7.9999805 L 4.0000195 7.9999805 z M 4.0000195 10.00002 L 6 10.00002 L 6 19.00002 L 4.0000195 19.00002 L 4.0000195 10.00002 z "
     style="fill:#1a1a1a" /><rect
     style="fill:#ea4040;stroke-width:0.15874;stroke-linecap:round;stroke-linejoin:round;fill-opacity:1"
     id="rect289"
     width="30.254234"
     height="1.6271187"
     x="1.8434455"
     y="-0.81355929"
     ry="0.81355935"
     transform="rotate(45)" /></svg>
